<?xml version="1.0" encoding="UTF-8" standalone="no"?><svg width="830" height="320.25" viewBox="0 0 830 320.25" xmlns="http://www.w3.org/2000/svg">
<defs>
<marker id="startarrow" markerWidth="10" markerHeight="7"
refX="0" refY="3.5" orient="auto">
<polygon points="10 0, 10 7, 0 3.5" fill="context-stroke" />
</marker>
<marker id="endarrow" markerWidth="10" markerHeight="7"
refX="10" refY="3.5" orient="auto">
<polygon points="0 0, 10 3.5, 0 7" fill="context-stroke" />
</marker>

</defs><style>
.a15 { font-size: 15px; font-family: Times, serif; }
</style>
<g >

            <ellipse cx="47.5" cy="63.5" rx="17.5" ry="17.5" fill="#ffffffff" 
            stroke-width="2" stroke="#000000ff"/>

            </g>
<text dominant-baseline="middle" text-anchor="middle" 
            x="47.5" y="48.5" class="a15"><tspan x = "47.5" dy="1.0em">1</tspan></text><g >

            <ellipse cx="617.5" cy="50" rx="17.5" ry="17.5" fill="#ffffffff" 
            stroke-width="2" stroke="#000000ff"/>

            </g>
<text dominant-baseline="middle" text-anchor="middle" 
            x="617.5" y="42.5" class="a15"></text><g >

            <ellipse cx="332.5" cy="165.25" rx="17.5" ry="17.5" fill="#ffffffff" 
            stroke-width="2" stroke="#000000ff"/>

            </g>
<text dominant-baseline="middle" text-anchor="middle" 
            x="332.5" y="157.75" class="a15"></text><g >

            <ellipse cx="47.5" cy="161" rx="17.5" ry="17.5" fill="#ffffffff" 
            stroke-width="2" stroke="#000000ff"/>

            </g>
<text dominant-baseline="middle" text-anchor="middle" 
            x="47.5" y="146" class="a15"><tspan x = "47.5" dy="1.0em">1</tspan></text><g >

            <ellipse cx="47.5" cy="262.75" rx="17.5" ry="17.5" fill="#ffffffff" 
            stroke-width="2" stroke="#000000ff"/>

            </g>
<text dominant-baseline="middle" text-anchor="middle" 
            x="47.5" y="247.75" class="a15"><tspan x = "47.5" dy="1.0em">1</tspan></text><g >

            <rect x="695" y="30" width="130" height="40" fill="#ffffffff" 
            stroke-width="2" stroke="#000000ff" rx="0"  />

            </g>
<text dominant-baseline="middle" text-anchor="middle" 
            x="760" y="27.5" class="a15"><tspan x = "760" dy="1.0em">d</tspan><tspan x = "760" dy="1.0em">1/100000</tspan></text><g >

            <rect x="125" y="195.25" width="130" height="40" fill="#ffffffff" 
            stroke-width="2" stroke="#000000ff" rx="0"  />

            </g>
<text dominant-baseline="middle" text-anchor="middle" 
            x="190" y="192.75" class="a15"><tspan x = "190" dy="1.0em">b</tspan><tspan x = "190" dy="1.0em">1/100000</tspan></text><g >

            <rect x="125" y="91" width="130" height="40" fill="#ffffffff" 
            stroke-width="2" stroke="#000000ff" rx="0"  />

            </g>
<text dominant-baseline="middle" text-anchor="middle" 
            x="190" y="88.5" class="a15"><tspan x = "190" dy="1.0em">a</tspan><tspan x = "190" dy="1.0em">1/100000</tspan></text><g >

            <rect x="410" y="85.5" width="130" height="40" fill="#ffffffff" 
            stroke-width="2" stroke="#000000ff" rx="0"  />

            </g>
<text dominant-baseline="middle" text-anchor="middle" 
            x="475" y="83" class="a15"><tspan x = "475" dy="1.0em">c</tspan><tspan x = "475" dy="1.0em">1/100000</tspan></text><g >

            <path id="arrow0" d="M 635 50 C 665 50, 665 50, 695 50 " stroke="#000000ff" stroke-width="2"   marker-end="url(#endarrow)" 
            fill="transparent" />

            </g>
<text><textPath href="#arrow0" startOffset="50%" text-anchor="middle" class="a15"></textPath></text><g >

            <path id="arrow1" d="M 349.577634880027 169.07156864448157 C 378.85358038864473 175.62282917787854, 445.5 197.25, 475.5 197.25 S 588 197.25, 618 197.25 S 694.7255766334009 94.07336840850883, 712.6273344651952 70 " stroke="#000000ff" stroke-width="2"   marker-end="url(#endarrow)" 
            fill="transparent" />

            </g>
<text><textPath href="#arrow1" startOffset="50%" text-anchor="middle" class="a15"></textPath></text><g >

            <path id="arrow2" d="M 63.854898587946224 167.22633858523568 C 91.89186759585405 177.9000618742111, 98.30553774858097 184.89352892007992, 125 198.58314853157987 " stroke="#000000ff" stroke-width="2"   marker-end="url(#endarrow)" 
            fill="transparent" />

            </g>
<text><textPath href="#arrow2" startOffset="50%" text-anchor="middle" class="a15"></textPath></text><g >

            <path id="arrow3" d="M 64.101957715884 257.2160140947053 C 92.56245665739941 247.72918111420017, 97.63544019563003 242.14860407224808, 125 229.8530411850493 " stroke="#000000ff" stroke-width="2"   marker-end="url(#endarrow)" 
            fill="transparent" />

            </g>
<text><textPath href="#arrow3" startOffset="50%" text-anchor="middle" class="a15"></textPath></text><g >

            <path id="arrow4" d="M 255 223.0441176470588 C 284.17281685030787 230.0403135432865, 304.11211645265104 240.25908070709053, 333 241.75 S 465.91125842154634 201.8811991779676, 490.5 186.25 S 585.1126054983991 84.74631890427645, 605.567802025726 62.801275385786056 " stroke="#000000ff" stroke-width="2"   marker-end="url(#endarrow)" 
            fill="transparent" />

            </g>
<text><textPath href="#arrow4" startOffset="50%" text-anchor="middle" class="a15"></textPath></text><g >

            <path id="arrow5" d="M 255 200.47727272727272 C 282.31099432387816 188.0631843982372, 289.25759232052627 184.90563985430623, 316.56858664440443 172.49155152527072 " stroke="#000000ff" stroke-width="2"   marker-end="url(#endarrow)" 
            fill="transparent" />

            </g>
<text><textPath href="#arrow5" startOffset="50%" text-anchor="middle" class="a15"></textPath></text><g >

            <path id="arrow6" d="M 64.101957715884 69.03398590529466 C 92.56245665739941 78.5208188857998, 97.63544019563004 84.10139592775192, 125 96.39695881495068 " stroke="#000000ff" stroke-width="2"   marker-end="url(#endarrow)" 
            fill="transparent" />

            </g>
<text><textPath href="#arrow6" startOffset="50%" text-anchor="middle" class="a15"></textPath></text><g >

            <path id="arrow7" d="M 64.01299968732542 155.2059650219911 C 92.32099915131184 145.27333363111865, 97.87918960835138 139.1921063884928, 125 126.36784642153 " stroke="#000000ff" stroke-width="2"   marker-end="url(#endarrow)" 
            fill="transparent" />

            </g>
<text><textPath href="#arrow7" startOffset="50%" text-anchor="middle" class="a15"></textPath></text><g >

            <path id="arrow8" d="M 64.101957715884 69.03398590529466 C 92.56245665739941 78.5208188857998, 97.63544019563004 84.10139592775192, 125 96.39695881495068 " stroke="#000000ff" stroke-width="2"  marker-start="url(#startarrow)"  
            fill="transparent" />

            </g>
<text><textPath href="#arrow8" startOffset="50%" text-anchor="middle" class="a15"></textPath></text><g >

            <path id="arrow9" d="M 255 93.05882352941177 C 281.26386312180324 78.56022035809957, 303 50, 333 50 S 445.5 50, 475.5 50 S 570 50, 600 50 " stroke="#000000ff" stroke-width="2"   marker-end="url(#endarrow)" 
            fill="transparent" />

            </g>
<text><textPath href="#arrow9" startOffset="50%" text-anchor="middle" class="a15"></textPath></text><g >

            <path id="arrow10" d="M 255 127.0284090909091 C 281.90579382464404 140.29785740897216, 289.89915977764696 144.2400401630668, 316.804953602291 157.50948848112986 " stroke="#000000ff" stroke-width="2"   marker-end="url(#endarrow)" 
            fill="transparent" />

            </g>
<text><textPath href="#arrow10" startOffset="50%" text-anchor="middle" class="a15"></textPath></text><g >

            <path id="arrow11" d="M 64.54529335667846 59.53667129993316 C 93.76579625384151 52.742393528390004, 162.4780529919047 27.782698259760373, 190.5 30.25 S 303 105.5, 333 105.5 S 380 105.5, 410 105.5 " stroke="#000000ff" stroke-width="2"   marker-end="url(#endarrow)" 
            fill="transparent" />

            </g>
<text><textPath href="#arrow11" startOffset="50%" text-anchor="middle" class="a15"></textPath></text><g >

            <path id="arrow12" d="M 348.6387273944917 158.48305991704646 C 376.3051172136203 146.88259120341183, 383.8748963103904 138.59285390242366, 410 123.8456861334198 " stroke="#000000ff" stroke-width="2"   marker-end="url(#endarrow)" 
            fill="transparent" />

            </g>
<text><textPath href="#arrow12" startOffset="50%" text-anchor="middle" class="a15"></textPath></text><g >

            <path id="arrow13" d="M 64.577634880027 266.57156864448154 C 93.85358038864474 273.12282917787854, 160.5 294.75, 190.5 294.75 S 303 294.75, 333 294.75 S 415.90367846789366 151.4667018260377, 430.92800528401585 125.5 " stroke="#000000ff" stroke-width="2"   marker-end="url(#endarrow)" 
            fill="transparent" />

            </g>
<text><textPath href="#arrow13" startOffset="50%" text-anchor="middle" class="a15"></textPath></text><g >

            <path id="arrow14" d="M 540 89.10227272727272 C 566.7839408937072 75.58855709453866, 575.0920935849637 71.3967164184956, 601.8760344786708 57.88300078576154 " stroke="#000000ff" stroke-width="2"   marker-end="url(#endarrow)" 
            fill="transparent" />

            </g>
<text><textPath href="#arrow14" startOffset="50%" text-anchor="middle" class="a15"></textPath></text></svg>