<?xml version="1.0" encoding="UTF-8" standalone="no"?><svg width="777.5" height="501.75" viewBox="0 0 777.5 501.75" xmlns="http://www.w3.org/2000/svg">
<defs>
<marker id="startarrow" markerWidth="10" markerHeight="7"
refX="0" refY="3.5" orient="auto">
<polygon points="10 0, 10 7, 0 3.5" fill="context-stroke" />
</marker>
<marker id="endarrow" markerWidth="10" markerHeight="7"
refX="10" refY="3.5" orient="auto">
<polygon points="0 0, 10 3.5, 0 7" fill="context-stroke" />
</marker>

</defs><style>
.a15 { font-size: 15px; font-family: Times, serif; }
</style>
<g >

            <ellipse cx="47.5" cy="140.25" rx="17.5" ry="17.5" fill="#ffffffff" 
            stroke-width="2" stroke="#000000ff"/>

            </g>
<text dominant-baseline="middle" text-anchor="middle" 
            x="47.5" y="125.25" class="a15"><tspan x = "47.5" dy="1.0em">1</tspan></text><g >

            <ellipse cx="392.5" cy="217.5" rx="17.5" ry="17.5" fill="#ffffffff" 
            stroke-width="2" stroke="#000000ff"/>

            </g>
<text dominant-baseline="middle" text-anchor="middle" 
            x="392.5" y="202.5" class="a15"><tspan x = "392.5" dy="1.0em">1</tspan></text><g >

            <ellipse cx="47.5" cy="235.25" rx="17.5" ry="17.5" fill="#ffffffff" 
            stroke-width="2" stroke="#000000ff"/>

            </g>
<text dominant-baseline="middle" text-anchor="middle" 
            x="47.5" y="220.25" class="a15"><tspan x = "47.5" dy="1.0em">1</tspan></text><g >

            <ellipse cx="392.5" cy="399.75" rx="17.5" ry="17.5" fill="#ffffffff" 
            stroke-width="2" stroke="#000000ff"/>

            </g>
<text dominant-baseline="middle" text-anchor="middle" 
            x="392.5" y="384.75" class="a15"><tspan x = "392.5" dy="1.0em">3</tspan></text><g >

            <ellipse cx="47.5" cy="335.75" rx="17.5" ry="17.5" fill="#ffffffff" 
            stroke-width="2" stroke="#000000ff"/>

            </g>
<text dominant-baseline="middle" text-anchor="middle" 
            x="47.5" y="320.75" class="a15"><tspan x = "47.5" dy="1.0em">2</tspan></text><g >

            <ellipse cx="737.5" cy="146.375" rx="17.5" ry="17.5" fill="#ffffffff" 
            stroke-width="2" stroke="#000000ff"/>

            </g>
<text dominant-baseline="middle" text-anchor="middle" 
            x="737.5" y="131.375" class="a15"><tspan x = "737.5" dy="1.0em">4</tspan></text><g >

            <ellipse cx="392.5" cy="85" rx="17.5" ry="17.5" fill="#ffffffff" 
            stroke-width="2" stroke="#000000ff"/>

            </g>
<text dominant-baseline="middle" text-anchor="middle" 
            x="392.5" y="77.5" class="a15"></text><g >

            <rect x="500" y="326.75" width="130" height="40" fill="#ffffffff" 
            stroke-width="2" stroke="#000000ff" rx="0"  />

            </g>
<text dominant-baseline="middle" text-anchor="middle" 
            x="565" y="324.25" class="a15"><tspan x = "565" dy="1.0em">Queued</tspan><tspan x = "565" dy="1.0em">1/100000</tspan></text><g >

            <rect x="470" y="126.375" width="190" height="40" fill="#ffffffff" 
            stroke-width="2" stroke="#000000ff" rx="0"  />

            </g>
<text dominant-baseline="middle" text-anchor="middle" 
            x="565" y="123.875" class="a15"><tspan x = "565" dy="1.0em">Completed</tspan><tspan x = "565" dy="1.0em">513/10000000</tspan></text><g >

            <rect x="125" y="123.5" width="190" height="40" fill="#ffffffff" 
            stroke-width="2" stroke="#000000ff" rx="0"  />

            </g>
<text dominant-baseline="middle" text-anchor="middle" 
            x="220" y="121" class="a15"><tspan x = "220" dy="1.0em">Accepted</tspan><tspan x = "220" dy="1.0em">241/10000000</tspan></text><g >

            <path id="arrow0" d="M 61.0076521418291 151.37624526133322 C 84.16362724210755 170.4498085664759, 190.5 282.75, 220.5 282.75 S 363 282.75, 393 282.75 S 472.7326843932524 319.32986954242403, 500 331.839605734767 " stroke="#000000ff" stroke-width="2"   marker-end="url(#endarrow)" 
            fill="transparent" />

            </g>
<text><textPath href="#arrow0" startOffset="50%" text-anchor="middle" class="a15"></textPath></text><g >

            <path id="arrow1" d="M 406.50486975243064 227.9935038579806 C 430.51321789945456 245.9823676145188, 489.4498810926583 306.17318350012715, 511.2809283128574 326.75 " stroke="#000000ff" stroke-width="2"   marker-end="url(#endarrow)" 
            fill="transparent" />

            </g>
<text><textPath href="#arrow1" startOffset="50%" text-anchor="middle" class="a15"></textPath></text><g >

            <path id="arrow2" d="M 62.2095629236822 244.7304408438761 C 87.42595650713739 260.98262514766367, 190.5 346.75, 220.5 346.75 S 363 346.75, 393 346.75 S 470 346.75, 500 346.75 " stroke="#000000ff" stroke-width="2"   marker-end="url(#endarrow)" 
            fill="transparent" />

            </g>
<text><textPath href="#arrow2" startOffset="50%" text-anchor="middle" class="a15"></textPath></text><g >

            <path id="arrow3" d="M 409.22822802631094 394.61031254843783 C 437.90519035712964 385.7994197743312, 472.0338321701768 370.2260127530195, 500 359.3681374123204 " stroke="#000000ff" stroke-width="2"   marker-end="url(#endarrow)" 
            fill="transparent" />

            </g>
<text><textPath href="#arrow3" startOffset="50%" text-anchor="middle" class="a15"></textPath></text><g >

            <path id="arrow4" d="M 61.99610338639208 345.55372309946745 C 86.84656633449279 362.36010555569743, 190.5 452.75, 220.5 452.75 S 363 452.75, 393 452.75 S 482.2927297808225 384.90032719163304, 506.1792452830189 366.75 " stroke="#000000ff" stroke-width="2"   marker-end="url(#endarrow)" 
            fill="transparent" />

            </g>
<text><textPath href="#arrow4" startOffset="50%" text-anchor="middle" class="a15"></textPath></text><g >

            <path id="arrow5" d="M 60.590094398251225 151.86462133024025 C 83.03025622382476 171.77540075350925, 190.5 293.75, 220.5 293.75 S 363 293.75, 393 293.75 S 471.9558251021151 323.74755362302585, 500 334.40232974910396 " stroke="#000000ff" stroke-width="2"  marker-start="url(#startarrow)"  
            fill="transparent" />

            </g>
<text><textPath href="#arrow5" startOffset="50%" text-anchor="middle" class="a15"></textPath></text><g >

            <path id="arrow6" d="M 406.50486975243064 227.9935038579806 C 430.51321789945456 245.9823676145188, 489.4498810926583 306.17318350012715, 511.2809283128574 326.75 " stroke="#000000ff" stroke-width="2"  marker-start="url(#startarrow)"  
            fill="transparent" />

            </g>
<text><textPath href="#arrow6" startOffset="50%" text-anchor="middle" class="a15"></textPath></text><g >

            <path id="arrow7" d="M 409.22822802631094 394.61031254843783 C 437.90519035712964 385.7994197743312, 472.0338321701768 370.2260127530195, 500 359.3681374123204 " stroke="#000000ff" stroke-width="2"  marker-start="url(#startarrow)"  
            fill="transparent" />

            </g>
<text><textPath href="#arrow7" startOffset="50%" text-anchor="middle" class="a15"></textPath></text><g >

            <path id="arrow8" d="M 61.30614040174462 129.49637329979717 C 84.97380966187825 111.06158467087806, 190.5 5.5, 220.5 5.5 S 363 5.5, 393 5.5 S 479.95830118446423 103.89558778603536, 499.82475598935224 126.375 " stroke="#000000ff" stroke-width="2"   marker-end="url(#endarrow)" 
            fill="transparent" />

            </g>
<text><textPath href="#arrow8" startOffset="50%" text-anchor="middle" class="a15"></textPath></text><g >

            <path id="arrow9" d="M 408.6787085264374 210.82921365830225 C 436.41363742890155 199.39357992967754, 457.9208698295702 181.66336989141612, 483.73299384258473 166.375 " stroke="#000000ff" stroke-width="2"   marker-end="url(#endarrow)" 
            fill="transparent" />

            </g>
<text><textPath href="#arrow9" startOffset="50%" text-anchor="middle" class="a15"></textPath></text><g >

            <path id="arrow10" d="M 64.75715244013918 232.34471349815576 C 94.34084233752063 227.36422235213706, 191.4896519133845 213.34979359695592, 220.5 206.125 S 363 146.375, 393 146.375 S 440 146.375, 470 146.375 " stroke="#000000ff" stroke-width="2"   marker-end="url(#endarrow)" 
            fill="transparent" />

            </g>
<text><textPath href="#arrow10" startOffset="50%" text-anchor="middle" class="a15"></textPath></text><g >

            <path id="arrow11" d="M 62.2095629236822 326.2695591561239 C 87.42595650713739 310.0173748523363, 193.69365892055788 237.23558512185244, 220.5 224.25 S 363.8886974838704 170.89129560927893, 393 164.5 S 440.312947407264 157.61207090958504, 470 153.29016064257027 " stroke="#000000ff" stroke-width="2"   marker-end="url(#endarrow)" 
            fill="transparent" />

            </g>
<text><textPath href="#arrow11" startOffset="50%" text-anchor="middle" class="a15"></textPath></text><g >

            <path id="arrow12" d="M 408.9874996244531 90.86620457652643 C 437.2517846949441 100.92255527914315, 451.6942264517898 112.71252600917691, 478.40259226570817 126.375 " stroke="#000000ff" stroke-width="2"   marker-end="url(#endarrow)" 
            fill="transparent" />

            </g>
<text><textPath href="#arrow12" startOffset="50%" text-anchor="middle" class="a15"></textPath></text><g >

            <path id="arrow13" d="M 62.01068350137657 130.46787015405755 C 86.88614093230782 113.69850470387051, 190.5 23.625, 220.5 23.625 S 363 23.625, 393 23.625 S 475.8520552629455 105.31246814077556, 497.2148676171079 126.375 " stroke="#000000ff" stroke-width="2"  marker-start="url(#startarrow)"  
            fill="transparent" />

            </g>
<text><textPath href="#arrow13" startOffset="50%" text-anchor="middle" class="a15"></textPath></text><g >

            <path id="arrow14" d="M 408.6787085264374 210.82921365830225 C 436.41363742890155 199.39357992967754, 457.9208698295702 181.66336989141612, 483.73299384258473 166.375 " stroke="#000000ff" stroke-width="2"  marker-start="url(#startarrow)"  
            fill="transparent" />

            </g>
<text><textPath href="#arrow14" startOffset="50%" text-anchor="middle" class="a15"></textPath></text><g >

            <path id="arrow15" d="M 660 146.375 C 690 146.375, 690 146.375, 720 146.375 " stroke="#000000ff" stroke-width="2"   marker-end="url(#endarrow)" 
            fill="transparent" />

            </g>
<text><textPath href="#arrow15" startOffset="50%" text-anchor="middle" class="a15"></textPath></text><g >

            <path id="arrow16" d="M 64.99689486150947 140.57965164231828 C 94.9915717669543 141.14476874343535, 95.01106313665473 141.39499392398156, 125 142.20965078812208 " stroke="#000000ff" stroke-width="2"   marker-end="url(#endarrow)" 
            fill="transparent" />

            </g>
<text><textPath href="#arrow16" startOffset="50%" text-anchor="middle" class="a15"></textPath></text><g >

            <path id="arrow17" d="M 62.95046433631721 227.03214433126317 C 89.4369746271467 212.94439175628574, 122.41464846275787 181.69036555604436, 146.27068755011425 163.5 " stroke="#000000ff" stroke-width="2"   marker-end="url(#endarrow)" 
            fill="transparent" />

            </g>
<text><textPath href="#arrow17" startOffset="50%" text-anchor="middle" class="a15"></textPath></text><g >

            <path id="arrow18" d="M 59.187217623782175 322.72468064827757 C 79.22244783598019 300.39556175961053, 143.82347829106777 188.85711097731783, 159.85522563451065 163.5 " stroke="#000000ff" stroke-width="2"   marker-end="url(#endarrow)" 
            fill="transparent" />

            </g>
<text><textPath href="#arrow18" startOffset="50%" text-anchor="middle" class="a15"></textPath></text><g >

            <path id="arrow19" d="M 64.99689486150947 140.57965164231828 C 94.9915717669543 141.14476874343535, 95.01106313665473 141.39499392398156, 125 142.20965078812208 " stroke="#000000ff" stroke-width="2"  marker-start="url(#startarrow)"  
            fill="transparent" />

            </g>
<text><textPath href="#arrow19" startOffset="50%" text-anchor="middle" class="a15"></textPath></text><g >

            <path id="arrow20" d="M 301.2837837837838 163.5 C 327.09923670624795 178.78274813009878, 351.6255328727651 193.30231546067694, 377.44098579522927 208.58506359077572 " stroke="#000000ff" stroke-width="2"   marker-end="url(#endarrow)" 
            fill="transparent" />

            </g>
<text><textPath href="#arrow20" startOffset="50%" text-anchor="middle" class="a15"></textPath></text><g >

            <path id="arrow21" d="M 62.95046433631721 227.03214433126317 C 89.4369746271467 212.94439175628574, 122.41464846275787 181.69036555604436, 146.27068755011425 163.5 " stroke="#000000ff" stroke-width="2"  marker-start="url(#startarrow)"  
            fill="transparent" />

            </g>
<text><textPath href="#arrow21" startOffset="50%" text-anchor="middle" class="a15"></textPath></text><g >

            <path id="arrow22" d="M 310.2350427350427 123.5 C 337.40663736024584 110.78369371540494, 349.4783085100951 105.13415161727552, 376.6499031352982 92.41784533268046 " stroke="#000000ff" stroke-width="2"   marker-end="url(#endarrow)" 
            fill="transparent" />

            </g>
<text><textPath href="#arrow22" startOffset="50%" text-anchor="middle" class="a15"></textPath></text></svg>