<?xml version="1.0" encoding="UTF-8" standalone="no"?><svg width="2902.5" height="426" viewBox="0 0 2902.5 426" xmlns="http://www.w3.org/2000/svg">
<defs>
<marker id="startarrow" markerWidth="10" markerHeight="7"
refX="0" refY="3.5" orient="auto">
<polygon points="10 0, 10 7, 0 3.5" fill="context-stroke" />
</marker>
<marker id="endarrow" markerWidth="10" markerHeight="7"
refX="10" refY="3.5" orient="auto">
<polygon points="0 0, 10 3.5, 0 7" fill="context-stroke" />
</marker>

</defs><style>
.a15 { font-size: 15px; font-family: Times, serif; }
</style>
<g >

            <ellipse cx="47.5" cy="189" rx="17.5" ry="17.5" fill="#ffffffff" 
            stroke-width="2" stroke="#000000ff"/>

            </g>
<text dominant-baseline="middle" text-anchor="middle" 
            x="47.5" y="181.5" class="a15"></text><g >

            <ellipse cx="2862.5" cy="187.75" rx="17.5" ry="17.5" fill="#ffffffff" 
            stroke-width="2" stroke="#000000ff"/>

            </g>
<text dominant-baseline="middle" text-anchor="middle" 
            x="2862.5" y="180.25" class="a15"></text><g >

            <rect x="220" y="176.5" width="175" height="25" fill="#ffffffff" 
            stroke-width="2" stroke="#000000ff" rx="0"  />

            </g>
<text dominant-baseline="middle" text-anchor="middle" 
            x="307.5" y="174" class="a15"><tspan x = "307.5" dy="1.0em">A_SUBMITTED</tspan></text><g >

            <rect x="550" y="176.5" width="265" height="25" fill="#ffffffff" 
            stroke-width="2" stroke="#000000ff" rx="0"  />

            </g>
<text dominant-baseline="middle" text-anchor="middle" 
            x="682.5" y="174" class="a15"><tspan x = "682.5" dy="1.0em">A_PARTLYSUBMITTED</tspan></text><g >

            <rect x="955" y="176.5" width="205" height="25" fill="#ffffffff" 
            stroke-width="2" stroke="#000000ff" rx="0"  />

            </g>
<text dominant-baseline="middle" text-anchor="middle" 
            x="1057.5" y="174" class="a15"><tspan x = "1057.5" dy="1.0em">A_PREACCEPTED</tspan></text><g >

            <rect x="1922.5" y="298.5" width="160" height="25" fill="#ffffffff" 
            stroke-width="2" stroke="#000000ff" rx="0"  />

            </g>
<text dominant-baseline="middle" text-anchor="middle" 
            x="2002.5" y="296" class="a15"><tspan x = "2002.5" dy="1.0em">A_DECLINED</tspan></text><g >

            <rect x="1915" y="51.75" width="175" height="25" fill="#ffffffff" 
            stroke-width="2" stroke="#000000ff" rx="0"  />

            </g>
<text dominant-baseline="middle" text-anchor="middle" 
            x="2002.5" y="49.25" class="a15"><tspan x = "2002.5" dy="1.0em">A_CANCELLED</tspan></text><g >

            <rect x="1300" y="185" width="160" height="25" fill="#ffffffff" 
            stroke-width="2" stroke="#000000ff" rx="0"  />

            </g>
<text dominant-baseline="middle" text-anchor="middle" 
            x="1380" y="182.5" class="a15"><tspan x = "1380" dy="1.0em">A_ACCEPTED</tspan></text><g >

            <rect x="1600" y="175.25" width="175" height="25" fill="#ffffffff" 
            stroke-width="2" stroke="#000000ff" rx="0"  />

            </g>
<text dominant-baseline="middle" text-anchor="middle" 
            x="1687.5" y="172.75" class="a15"><tspan x = "1687.5" dy="1.0em">A_FINALIZED</tspan></text><g >

            <rect x="1922.5" y="175.25" width="160" height="25" fill="#ffffffff" 
            stroke-width="2" stroke="#000000ff" rx="0"  />

            </g>
<text dominant-baseline="middle" text-anchor="middle" 
            x="2002.5" y="172.75" class="a15"><tspan x = "2002.5" dy="1.0em">A_APPROVED</tspan></text><g >

            <rect x="2215" y="175.25" width="190" height="25" fill="#ffffffff" 
            stroke-width="2" stroke="#000000ff" rx="0"  />

            </g>
<text dominant-baseline="middle" text-anchor="middle" 
            x="2310" y="172.75" class="a15"><tspan x = "2310" dy="1.0em">A_REGISTERED</tspan></text><g >

            <rect x="2530" y="175.25" width="175" height="25" fill="#ffffffff" 
            stroke-width="2" stroke="#000000ff" rx="0"  />

            </g>
<text dominant-baseline="middle" text-anchor="middle" 
            x="2617.5" y="172.75" class="a15"><tspan x = "2617.5" dy="1.0em">A_ACTIVATED</tspan></text><text dominant-baseline="middle" text-anchor="middle" 
            x="142.5" y="174" class="a15"><tspan x = "142.5" dy="1.0em">11032</tspan></text><text dominant-baseline="middle" text-anchor="middle" 
            x="2775" y="296" class="a15"><tspan x = "2775" dy="1.0em">7635</tspan></text><text dominant-baseline="middle" text-anchor="middle" 
            x="2775" y="49.25" class="a15"><tspan x = "2775" dy="1.0em">2807</tspan></text><text dominant-baseline="middle" text-anchor="middle" 
            x="2775" y="172.75" class="a15"><tspan x = "2775" dy="1.0em">590</tspan></text><text dominant-baseline="middle" text-anchor="middle" 
            x="472.5" y="174" class="a15"><tspan x = "472.5" dy="1.0em">11032</tspan></text><text dominant-baseline="middle" text-anchor="middle" 
            x="885" y="174" class="a15"><tspan x = "885" dy="1.0em">5312</tspan></text><text dominant-baseline="middle" text-anchor="middle" 
            x="1845" y="337.5" class="a15"><tspan x = "1845" dy="1.0em">5719</tspan></text><text dominant-baseline="middle" text-anchor="middle" 
            x="1845" y="296" class="a15"><tspan x = "1845" dy="1.0em">1085</tspan></text><text dominant-baseline="middle" text-anchor="middle" 
            x="1230" y="182.5" class="a15"><tspan x = "1230" dy="1.0em">3127</tspan></text><text dominant-baseline="middle" text-anchor="middle" 
            x="1530" y="172.75" class="a15"><tspan x = "1530" dy="1.0em">3032</tspan></text><text dominant-baseline="middle" text-anchor="middle" 
            x="1845" y="219.75" class="a15"><tspan x = "1845" dy="1.0em">802</tspan></text><text dominant-baseline="middle" text-anchor="middle" 
            x="1845" y="122" class="a15"><tspan x = "1845" dy="1.0em">1640</tspan></text><text dominant-baseline="middle" text-anchor="middle" 
            x="1845" y="172.75" class="a15"><tspan x = "1845" dy="1.0em">590</tspan></text><text dominant-baseline="middle" text-anchor="middle" 
            x="2152.5" y="172.75" class="a15"><tspan x = "2152.5" dy="1.0em">590</tspan></text><text dominant-baseline="middle" text-anchor="middle" 
            x="2467.5" y="172.75" class="a15"><tspan x = "2467.5" dy="1.0em">590</tspan></text><text dominant-baseline="middle" text-anchor="middle" 
            x="1380" y="2.5" class="a15"><tspan x = "1380" dy="1.0em">1</tspan></text><text dominant-baseline="middle" text-anchor="middle" 
            x="1530" y="49.25" class="a15"><tspan x = "1530" dy="1.0em">1100</tspan></text><text dominant-baseline="middle" text-anchor="middle" 
            x="1687.5" y="242" class="a15"><tspan x = "1687.5" dy="1.0em">29</tspan></text><text dominant-baseline="middle" text-anchor="middle" 
            x="1530" y="114.25" class="a15"><tspan x = "1530" dy="1.0em">66</tspan></text><g >

            <path id="arrow0" d="M 65 189 C 95 189, 155 189, 185 189 S 190 189, 220 189 " stroke="#000000ff" stroke-width="2"   marker-end="url(#endarrow)" 
            fill="transparent" />

            </g>
<text><textPath href="#arrow0" startOffset="50%" text-anchor="middle" class="a15"></textPath></text><g >

            <path id="arrow1" d="M 2082.5 311 C 2112.5 311, 2123 311, 2153 311 S 2280.5 311, 2310.5 311 S 2438 311, 2468 311 S 2588 311, 2618 311 S 2780 311, 2810 311 S 2843.885162460951 231.45054717500483, 2855.6419019592977 203.85020159079124 " stroke="#000000ff" stroke-width="2"   marker-end="url(#endarrow)" 
            fill="transparent" />

            </g>
<text><textPath href="#arrow1" startOffset="50%" text-anchor="middle" class="a15"></textPath></text><g >

            <path id="arrow2" d="M 2090 64.25 C 2120 64.25, 2123 64.25, 2153 64.25 S 2280.5 64.25, 2310.5 64.25 S 2438 64.25, 2468 64.25 S 2588 64.25, 2618 64.25 S 2780 64.25, 2810 64.25 S 2843.917072054935 144.03587426256206, 2855.6536581255023 171.64479578094392 " stroke="#000000ff" stroke-width="2"   marker-end="url(#endarrow)" 
            fill="transparent" />

            </g>
<text><textPath href="#arrow2" startOffset="50%" text-anchor="middle" class="a15"></textPath></text><g >

            <path id="arrow3" d="M 2705 187.75 C 2735 187.75, 2772.5 187.75, 2802.5 187.75 S 2815 187.75, 2845 187.75 " stroke="#000000ff" stroke-width="2"   marker-end="url(#endarrow)" 
            fill="transparent" />

            </g>
<text><textPath href="#arrow3" startOffset="50%" text-anchor="middle" class="a15"></textPath></text><g >

            <path id="arrow4" d="M 395 189 C 425 189, 485 189, 515 189 S 520 189, 550 189 " stroke="#000000ff" stroke-width="2"   marker-end="url(#endarrow)" 
            fill="transparent" />

            </g>
<text><textPath href="#arrow4" startOffset="50%" text-anchor="middle" class="a15"></textPath></text><g >

            <path id="arrow5" d="M 815 189 C 845 189, 890 189, 920 189 S 925 189, 955 189 " stroke="#000000ff" stroke-width="2"   marker-end="url(#endarrow)" 
            fill="transparent" />

            </g>
<text><textPath href="#arrow5" startOffset="50%" text-anchor="middle" class="a15"></textPath></text><g >

            <path id="arrow6" d="M 759.2048929663608 201.5 C 778.451925414855 224.51199126383045, 855.5 352.5, 885.5 352.5 S 1028 352.5, 1058 352.5 S 1200.5 352.5, 1230.5 352.5 S 1350.5 352.5, 1380.5 352.5 S 1500.5 352.5, 1530.5 352.5 S 1658 352.5, 1688 352.5 S 1850 352.5, 1880 352.5 S 1910.8503504899147 336.98133884446713, 1937.6506024096386 323.5 " stroke="#000000ff" stroke-width="2"   marker-end="url(#endarrow)" 
            fill="transparent" />

            </g>
<text><textPath href="#arrow6" startOffset="50%" text-anchor="middle" class="a15"></textPath></text><g >

            <path id="arrow7" d="M 758.7172011661808 176.5 C 777.420500188042 153.04394309141355, 855.5 17.5, 885.5 17.5 S 1028 17.5, 1058 17.5 S 1200.5 17.5, 1230.5 17.5 S 1362.5 17.5, 1392.5 17.5 S 1500.5 17.5, 1530.5 17.5 S 1658 17.5, 1688 17.5 S 1815.5 17.5, 1845.5 17.5 S 1900.7390613726727 40.30287963949185, 1928.4692513368984 51.75 " stroke="#000000ff" stroke-width="2"   marker-end="url(#endarrow)" 
            fill="transparent" />

            </g>
<text><textPath href="#arrow7" startOffset="50%" text-anchor="middle" class="a15"></textPath></text><g >

            <path id="arrow8" d="M 1121.2243852459017 201.5 C 1142.4158204037183 222.73494939838702, 1200.5 311, 1230.5 311 S 1350.5 311, 1380.5 311 S 1500.5 311, 1530.5 311 S 1658 311, 1688 311 S 1850 311, 1880 311 S 1892.5 311, 1922.5 311 " stroke="#000000ff" stroke-width="2"   marker-end="url(#endarrow)" 
            fill="transparent" />

            </g>
<text><textPath href="#arrow8" startOffset="50%" text-anchor="middle" class="a15"></textPath></text><g >

            <path id="arrow9" d="M 1120.9493987975952 176.5 C 1141.902877632735 155.03021367816274, 1200.5 64.25, 1230.5 64.25 S 1350.5 64.25, 1380.5 64.25 S 1512.5 64.25, 1542.5 64.25 S 1658 64.25, 1688 64.25 S 1815.5 64.25, 1845.5 64.25 S 1885 64.25, 1915 64.25 " stroke="#000000ff" stroke-width="2"   marker-end="url(#endarrow)" 
            fill="transparent" />

            </g>
<text><textPath href="#arrow9" startOffset="50%" text-anchor="middle" class="a15"></textPath></text><g >

            <path id="arrow10" d="M 1160 191.788 C 1189.9557078830314 193.41759050883692, 1235 197.5, 1265 197.5 S 1270 197.5, 1300 197.5 " stroke="#000000ff" stroke-width="2"   marker-end="url(#endarrow)" 
            fill="transparent" />

            </g>
<text><textPath href="#arrow10" startOffset="50%" text-anchor="middle" class="a15"></textPath></text><g >

            <path id="arrow11" d="M 1443.2142857142858 210 C 1469.628418711951 224.22299469105053, 1500.5 257, 1530.5 257 S 1670 257, 1700 257 S 1818.335437734146 209.41985823433154, 1845.5 211.75 S 1924.8870173937967 279.0932604814899, 1947.764483627204 298.5 " stroke="#000000ff" stroke-width="2"   marker-end="url(#endarrow)" 
            fill="transparent" />

            </g>
<text><textPath href="#arrow11" startOffset="50%" text-anchor="middle" class="a15"></textPath></text><g >

            <path id="arrow12" d="M 1442.4358974358975 185 C 1468.6429367244118 170.39893525354194, 1512.5 129.25, 1542.5 129.25 S 1658 129.25, 1688 129.25 S 1833.5791694701363 170.46362967449426, 1860.5 164.75 S 1925.5581406022843 98.20197831522071, 1946.5298507462687 76.75 " stroke="#000000ff" stroke-width="2"   marker-end="url(#endarrow)" 
            fill="transparent" />

            </g>
<text><textPath href="#arrow12" startOffset="50%" text-anchor="middle" class="a15"></textPath></text><g >

            <path id="arrow13" d="M 1460 194.81034482758622 C 1489.9324080752128 192.7976484225288, 1535 187.75, 1565 187.75 S 1570 187.75, 1600 187.75 " stroke="#000000ff" stroke-width="2"   marker-end="url(#endarrow)" 
            fill="transparent" />

            </g>
<text><textPath href="#arrow13" startOffset="50%" text-anchor="middle" class="a15"></textPath></text><g >

            <path id="arrow14" d="M 1768.8164893617022 200.25 C 1797.2820224372708 209.7217172003662, 1845.1223572146605 222.8799186587077, 1872.5 234.75 S 1924.8563761704065 279.1074853665944, 1947.7459016393443 298.5 " stroke="#000000ff" stroke-width="2"   marker-end="url(#endarrow)" 
            fill="transparent" />

            </g>
<text><textPath href="#arrow14" startOffset="50%" text-anchor="middle" class="a15"></textPath></text><g >

            <path id="arrow15" d="M 1767.8879310344828 175.25 C 1796.280917250332 165.56298117341612, 1852.7868103195192 149.24363880496662, 1880 137 S 1923.1830165761262 97.10711802015025, 1945.2190721649486 76.75 " stroke="#000000ff" stroke-width="2"   marker-end="url(#endarrow)" 
            fill="transparent" />

            </g>
<text><textPath href="#arrow15" startOffset="50%" text-anchor="middle" class="a15"></textPath></text><g >

            <path id="arrow16" d="M 1775 187.75 C 1805 187.75, 1842.5 187.75, 1872.5 187.75 S 1892.5 187.75, 1922.5 187.75 " stroke="#000000ff" stroke-width="2"   marker-end="url(#endarrow)" 
            fill="transparent" />

            </g>
<text><textPath href="#arrow16" startOffset="50%" text-anchor="middle" class="a15"></textPath></text><g >

            <path id="arrow17" d="M 2082.5 187.75 C 2112.5 187.75, 2150 187.75, 2180 187.75 S 2185 187.75, 2215 187.75 " stroke="#000000ff" stroke-width="2"   marker-end="url(#endarrow)" 
            fill="transparent" />

            </g>
<text><textPath href="#arrow17" startOffset="50%" text-anchor="middle" class="a15"></textPath></text><g >

            <path id="arrow18" d="M 2405 187.75 C 2435 187.75, 2465 187.75, 2495 187.75 S 2500 187.75, 2530 187.75 " stroke="#000000ff" stroke-width="2"   marker-end="url(#endarrow)" 
            fill="transparent" />

            </g>
<text><textPath href="#arrow18" startOffset="50%" text-anchor="middle" class="a15"></textPath></text></svg>