<?xml version="1.0" encoding="UTF-8" standalone="no"?><svg width="1295" height="505" viewBox="0 0 1295 505" xmlns="http://www.w3.org/2000/svg">
<defs>
<marker id="startarrow" markerWidth="10" markerHeight="7"
refX="0" refY="3.5" orient="auto">
<polygon points="10 0, 10 7, 0 3.5" fill="context-stroke" />
</marker>
<marker id="endarrow" markerWidth="10" markerHeight="7"
refX="10" refY="3.5" orient="auto">
<polygon points="0 0, 10 3.5, 0 7" fill="context-stroke" />
</marker>

</defs><style>
.a15 { font-size: 15px; font-family: Times, serif; }
</style>
<g >

            <ellipse cx="47.5" cy="50" rx="17.5" ry="17.5" fill="#ffffffff" 
            stroke-width="2" stroke="#000000ff"/>

            </g>
<text dominant-baseline="middle" text-anchor="middle" 
            x="47.5" y="35" class="a15"><tspan x = "47.5" dy="1.0em">1</tspan></text><g >

            <ellipse cx="707.5" cy="50" rx="17.5" ry="17.5" fill="#ffffffff" 
            stroke-width="2" stroke="#000000ff"/>

            </g>
<text dominant-baseline="middle" text-anchor="middle" 
            x="707.5" y="42.5" class="a15"></text><g >

            <ellipse cx="707.5" cy="150" rx="17.5" ry="17.5" fill="#ffffffff" 
            stroke-width="2" stroke="#000000ff"/>

            </g>
<text dominant-baseline="middle" text-anchor="middle" 
            x="707.5" y="142.5" class="a15"></text><g >

            <ellipse cx="47.5" cy="150" rx="17.5" ry="17.5" fill="#ffffffff" 
            stroke-width="2" stroke="#000000ff"/>

            </g>
<text dominant-baseline="middle" text-anchor="middle" 
            x="47.5" y="135" class="a15"><tspan x = "47.5" dy="1.0em">1</tspan></text><g >

            <rect x="155" y="30" width="445" height="40" fill="#ffffffff" 
            stroke-width="2" stroke="#000000ff" rx="0"  />

            </g>
<text dominant-baseline="middle" text-anchor="middle" 
            x="377.5" y="27.5" class="a15"><tspan x = "377.5" dy="1.0em">b</tspan><tspan x = "377.5" dy="1.0em">40559282215721/80000000000000</tspan></text><g >

            <rect x="785" y="30" width="505" height="40" fill="#ffffffff" 
            stroke-width="2" stroke="#000000ff" rx="0"  />

            </g>
<text dominant-baseline="middle" text-anchor="middle" 
            x="1037.5" y="27.5" class="a15"><tspan x = "1037.5" dy="1.0em">c</tspan><tspan x = "1037.5" dy="1.0em">4562838296980167/1000000000000000</tspan></text><g >

            <rect x="125" y="130" width="505" height="40" fill="#ffffffff" 
            stroke-width="2" stroke="#000000ff" rx="0"  />

            </g>
<text dominant-baseline="middle" text-anchor="middle" 
            x="377.5" y="127.5" class="a15"><tspan x = "377.5" dy="1.0em">d</tspan><tspan x = "377.5" dy="1.0em">3802422885937587/2500000000000000</tspan></text><g >

            <rect x="785" y="130" width="505" height="40" fill="#ffffffff" 
            stroke-width="2" stroke="#000000ff" rx="0"  />

            </g>
<text dominant-baseline="middle" text-anchor="middle" 
            x="1037.5" y="127.5" class="a15"><tspan x = "1037.5" dy="1.0em">e</tspan><tspan x = "1037.5" dy="1.0em">1267474132034459/2500000000000000</tspan></text><g >

            <path id="arrow0" d="M 65 50 C 95 50, 125 50, 155 50 " stroke="#000000ff" stroke-width="2"   marker-end="url(#endarrow)" 
            fill="transparent" />

            </g>
<text><textPath href="#arrow0" startOffset="50%" text-anchor="middle" class="a15"></textPath></text><g >

            <path id="arrow1" d="M 600 50 C 630 50, 660 50, 690 50 " stroke="#000000ff" stroke-width="2"   marker-end="url(#endarrow)" 
            fill="transparent" />

            </g>
<text><textPath href="#arrow1" startOffset="50%" text-anchor="middle" class="a15"></textPath></text><g >

            <path id="arrow2" d="M 725 50 C 755 50, 755 50, 785 50 " stroke="#000000ff" stroke-width="2"   marker-end="url(#endarrow)" 
            fill="transparent" />

            </g>
<text><textPath href="#arrow2" startOffset="50%" text-anchor="middle" class="a15"></textPath></text><g >

            <path id="arrow3" d="M 65 150 C 95 150, 95 150, 125 150 " stroke="#000000ff" stroke-width="2"   marker-end="url(#endarrow)" 
            fill="transparent" />

            </g>
<text><textPath href="#arrow3" startOffset="50%" text-anchor="middle" class="a15"></textPath></text><g >

            <path id="arrow4" d="M 630 150 C 660 150, 660 150, 690 150 " stroke="#000000ff" stroke-width="2"   marker-end="url(#endarrow)" 
            fill="transparent" />

            </g>
<text><textPath href="#arrow4" startOffset="50%" text-anchor="middle" class="a15"></textPath></text><g >

            <path id="arrow5" d="M 725 150 C 755 150, 755 150, 785 150 " stroke="#000000ff" stroke-width="2"   marker-end="url(#endarrow)" 
            fill="transparent" />

            </g>
<text><textPath href="#arrow5" startOffset="50%" text-anchor="middle" class="a15"></textPath></text></svg>