<?xml version="1.0" encoding="UTF-8" standalone="no"?><svg width="2690" height="583.5" viewBox="0 0 2690 583.5" xmlns="http://www.w3.org/2000/svg">
<defs>
<marker id="startarrow" markerWidth="10" markerHeight="7"
refX="0" refY="3.5" orient="auto">
<polygon points="10 0, 10 7, 0 3.5" fill="context-stroke" />
</marker>
<marker id="endarrow" markerWidth="10" markerHeight="7"
refX="10" refY="3.5" orient="auto">
<polygon points="0 0, 10 3.5, 0 7" fill="context-stroke" />
</marker>

</defs><style>
.a15 { font-size: 15px; font-family: Times, serif; }
</style>
<g >

            <ellipse cx="722.5" cy="198.75" rx="17.5" ry="17.5" fill="#ffffffff" 
            stroke-width="2" stroke="#000000ff"/>

            </g>
<text dominant-baseline="middle" text-anchor="middle" 
            x="722.5" y="191.25" class="a15"></text><g >

            <ellipse cx="722.5" cy="293.75" rx="17.5" ry="17.5" fill="#ffffffff" 
            stroke-width="2" stroke="#000000ff"/>

            </g>
<text dominant-baseline="middle" text-anchor="middle" 
            x="722.5" y="278.75" class="a15"><tspan x = "722.5" dy="1.0em">4</tspan></text><g >

            <ellipse cx="1492.5" cy="62.25" rx="17.5" ry="17.5" fill="#ffffffff" 
            stroke-width="2" stroke="#000000ff"/>

            </g>
<text dominant-baseline="middle" text-anchor="middle" 
            x="1492.5" y="47.25" class="a15"><tspan x = "1492.5" dy="1.0em">2</tspan></text><g >

            <ellipse cx="47.5" cy="218.5" rx="17.5" ry="17.5" fill="#ffffffff" 
            stroke-width="2" stroke="#000000ff"/>

            </g>
<text dominant-baseline="middle" text-anchor="middle" 
            x="47.5" y="203.5" class="a15"><tspan x = "47.5" dy="1.0em">1</tspan></text><g >

            <rect x="835" y="97.75" width="580" height="40" fill="#ffffffff" 
            stroke-width="2" stroke="#000000ff" rx="0"  />

            </g>
<text dominant-baseline="middle" text-anchor="middle" 
            x="1125" y="95.25" class="a15"><tspan x = "1125" dy="1.0em">e</tspan><tspan x = "1125" dy="1.0em">10000007148029803/10000000000000000000</tspan></text><g >

            <rect x="2165" y="95.75" width="520" height="40" fill="#ffffffff" 
            stroke-width="2" stroke="#000000ff" rx="0"  />

            </g>
<text dominant-baseline="middle" text-anchor="middle" 
            x="2425" y="93.25" class="a15"><tspan x = "2425" dy="1.0em">c</tspan><tspan x = "2425" dy="1.0em">899915854583903/100000000000000000</tspan></text><g >

            <rect x="1570" y="162.25" width="535" height="40" fill="#ffffffff" 
            stroke-width="2" stroke="#000000ff" rx="0"  />

            </g>
<text dominant-baseline="middle" text-anchor="middle" 
            x="1837.5" y="159.75" class="a15"><tspan x = "1837.5" dy="1.0em">d</tspan><tspan x = "1837.5" dy="1.0em">1499981016748877/500000000000000000</tspan></text><g >

            <rect x="125" y="198.5" width="520" height="40" fill="#ffffffff" 
            stroke-width="2" stroke="#000000ff" rx="0"  />

            </g>
<text dominant-baseline="middle" text-anchor="middle" 
            x="385" y="196" class="a15"><tspan x = "385" dy="1.0em">b</tspan><tspan x = "385" dy="1.0em">499999642122503/500000000000000000</tspan></text><text dominant-baseline="middle" text-anchor="middle" 
            x="787.5" y="144" class="a15"><tspan x = "787.5" dy="1.0em">2</tspan></text><text dominant-baseline="middle" text-anchor="middle" 
            x="787.5" y="185.25" class="a15"><tspan x = "787.5" dy="1.0em">2</tspan></text><text dominant-baseline="middle" text-anchor="middle" 
            x="787.5" y="102.75" class="a15"><tspan x = "787.5" dy="1.0em">7</tspan></text><text dominant-baseline="middle" text-anchor="middle" 
            x="1837.5" y="74" class="a15"><tspan x = "1837.5" dy="1.0em">2</tspan></text><text dominant-baseline="middle" text-anchor="middle" 
            x="1125" y="352.5" class="a15"><tspan x = "1125" dy="1.0em">4</tspan></text><text dominant-baseline="middle" text-anchor="middle" 
            x="787.5" y="293.5" class="a15"><tspan x = "787.5" dy="1.0em">3</tspan></text><text dominant-baseline="middle" text-anchor="middle" 
            x="787.5" y="258.5" class="a15"><tspan x = "787.5" dy="1.0em">2</tspan></text><g >

            <path id="arrow0" d="M 738.0712826096225 190.76343891958072 C 764.7649099404039 177.07219135314767, 772.7688590538027 170.95411937975905, 800 159 S 863.4853031714246 144.45128468988187, 892.7272727272727 137.75 " stroke="#000000ff" stroke-width="2"   marker-end="url(#endarrow)" 
            fill="transparent" />

            </g>
<text><textPath href="#arrow0" startOffset="50%" text-anchor="middle" class="a15"></textPath></text><g >

            <path id="arrow1" d="M 733.6677536414176 280.27664560680586 C 752.812474169562 257.1794666470445, 778.5047447556141 219.6282036051193, 800 200.25 S 909.0916916768078 150.2496413147964, 936.3636363636364 137.75 " stroke="#000000ff" stroke-width="2"   marker-end="url(#endarrow)" 
            fill="transparent" />

            </g>
<text><textPath href="#arrow1" startOffset="50%" text-anchor="middle" class="a15"></textPath></text><g >

            <path id="arrow2" d="M 734.5981683594757 186.1054627468705 C 755.3378855471484 164.42911317007707, 770 117.75, 800 117.75 S 805 117.75, 835 117.75 " stroke="#000000ff" stroke-width="2"  marker-start="url(#startarrow)"  
            fill="transparent" />

            </g>
<text><textPath href="#arrow2" startOffset="50%" text-anchor="middle" class="a15"></textPath></text><g >

            <path id="arrow3" d="M 1350.1801801801803 97.75 C 1379.2882988504648 90.48932320808633, 1446.4121454387162 73.74607158719664, 1475.5202641090007 66.48539479528297 " stroke="#000000ff" stroke-width="2"   marker-end="url(#endarrow)" 
            fill="transparent" />

            </g>
<text><textPath href="#arrow3" startOffset="50%" text-anchor="middle" class="a15"></textPath></text><g >

            <path id="arrow4" d="M 738.8908968435362 204.88094614758225 C 766.9895771467412 215.39113954343756, 758 223.25, 788 223.25 S 1095.5 223.25, 1125.5 223.25 S 1463 223.25, 1493 223.25 S 1808 115.75, 1838 115.75 S 2135 115.75, 2165 115.75 " stroke="#000000ff" stroke-width="2"   marker-end="url(#endarrow)" 
            fill="transparent" />

            </g>
<text><textPath href="#arrow4" startOffset="50%" text-anchor="middle" class="a15"></textPath></text><g >

            <path id="arrow5" d="M 735.4534246071971 281.98314863926373 C 757.6592953623921 261.8114034494301, 758 234.25, 788 234.25 S 1095.5 234.25, 1125.5 234.25 S 1463 234.25, 1493 234.25 S 1808.8427532941405 132.48852507364208, 1838 126.75 S 2135.008686714893 119.60099441167654, 2165 118.87910284463895 " stroke="#000000ff" stroke-width="2"   marker-end="url(#endarrow)" 
            fill="transparent" />

            </g>
<text><textPath href="#arrow5" startOffset="50%" text-anchor="middle" class="a15"></textPath></text><g >

            <path id="arrow6" d="M 1509.9512151978088 63.55579022808779 C 1539.867584108338 65.79428776195256, 1820.0645764862525 87.07561684597185, 1850 89 S 2135.054055982298 106.13527190455389, 2165 107.93539325842697 " stroke="#000000ff" stroke-width="2"   marker-end="url(#endarrow)" 
            fill="transparent" />

            </g>
<text><textPath href="#arrow6" startOffset="50%" text-anchor="middle" class="a15"></textPath></text><g >

            <path id="arrow7" d="M 734.1208600824666 306.8345561997239 C 754.0423345095523 329.2652239706792, 758 367.5, 788 367.5 S 1107.5 367.5, 1137.5 367.5 S 1463 367.5, 1493 367.5 S 1658.4644265397944 222.0561802301452, 1680.996963562753 202.25 " stroke="#000000ff" stroke-width="2"   marker-end="url(#endarrow)" 
            fill="transparent" />

            </g>
<text><textPath href="#arrow7" startOffset="50%" text-anchor="middle" class="a15"></textPath></text><g >

            <path id="arrow8" d="M 1509.0286939423577 67.99911093647228 C 1537.3635978435425 77.85472968471046, 1643.7884719469023 147.0681391735011, 1669.6633845427898 162.25 " stroke="#000000ff" stroke-width="2"   marker-end="url(#endarrow)" 
            fill="transparent" />

            </g>
<text><textPath href="#arrow8" startOffset="50%" text-anchor="middle" class="a15"></textPath></text><g >

            <path id="arrow9" d="M 732.5945127021312 213.0451325039858 C 749.8993916200704 237.55107393939005, 770 308.5, 800 308.5 S 1095.5 308.5, 1125.5 308.5 S 1463 308.5, 1493 308.5 S 1644.6283051052183 217.66691093934136, 1670.3638613861385 202.25 " stroke="#000000ff" stroke-width="2"  marker-start="url(#startarrow)"  
            fill="transparent" />

            </g>
<text><textPath href="#arrow9" startOffset="50%" text-anchor="middle" class="a15"></textPath></text><g >

            <path id="arrow10" d="M 739.4315609127162 289.32594698732254 C 768.457093905944 281.7418561084469, 770 273.5, 800 273.5 S 1095.5 273.5, 1125.5 273.5 S 1463 273.5, 1493 273.5 S 1630.027977357834 214.16997421635892, 1657.5582191780823 202.25 " stroke="#000000ff" stroke-width="2"  marker-start="url(#startarrow)"  
            fill="transparent" />

            </g>
<text><textPath href="#arrow10" startOffset="50%" text-anchor="middle" class="a15"></textPath></text><g >

            <path id="arrow11" d="M 65 218.5 C 95 218.5, 95 218.5, 125 218.5 " stroke="#000000ff" stroke-width="2"   marker-end="url(#endarrow)" 
            fill="transparent" />

            </g>
<text><textPath href="#arrow11" startOffset="50%" text-anchor="middle" class="a15"></textPath></text><g >

            <path id="arrow12" d="M 645 206.1265060240964 C 674.8650258462153 203.2839312748783, 675.2137090768258 203.25074335292862, 705.0787349230411 200.40816860371055 " stroke="#000000ff" stroke-width="2"   marker-end="url(#endarrow)" 
            fill="transparent" />

            </g>
<text><textPath href="#arrow12" startOffset="50%" text-anchor="middle" class="a15"></textPath></text><g >

            <path id="arrow13" d="M 570.1495016611295 238.5 C 598.3522225095522 248.72773370527136, 677.8456919899974 277.55608829998704, 706.0484128384201 287.7838220052584 " stroke="#000000ff" stroke-width="2"   marker-end="url(#endarrow)" 
            fill="transparent" />

            </g>
<text><textPath href="#arrow13" startOffset="50%" text-anchor="middle" class="a15"></textPath></text><g >

            <path id="arrow14" d="M 541.624 198.5 C 565.6101547414004 180.4815544310394, 693 62.25, 723 62.25 S 758 62.25, 788 62.25 S 1095.5 62.25, 1125.5 62.25 S 1445 62.25, 1475 62.25 " stroke="#000000ff" stroke-width="2"   marker-end="url(#endarrow)" 
            fill="transparent" />

            </g>
<text><textPath href="#arrow14" startOffset="50%" text-anchor="middle" class="a15"></textPath></text></svg>