<?xml version="1.0" encoding="UTF-8" standalone="no"?><svg width="650" height="172.5" viewBox="0 0 650 172.5" xmlns="http://www.w3.org/2000/svg">
<defs>
<marker id="startarrow" markerWidth="10" markerHeight="7"
refX="0" refY="3.5" orient="auto">
<polygon points="10 0, 10 7, 0 3.5" fill="context-stroke" />
</marker>
<marker id="endarrow" markerWidth="10" markerHeight="7"
refX="10" refY="3.5" orient="auto">
<polygon points="0 0, 10 3.5, 0 7" fill="context-stroke" />
</marker>

</defs><style>
.a15 { font-size: 15px; font-family: Times, serif; }
</style>
<g >

            <ellipse cx="47.5" cy="90.5" rx="17.5" ry="17.5" fill="#ffffffff" 
            stroke-width="2" stroke="#000000ff"/>

            </g>
<text dominant-baseline="middle" text-anchor="middle" 
            x="47.5" y="75.5" class="a15"><tspan x = "47.5" dy="1.0em">6</tspan></text><g >

            <ellipse cx="402.5" cy="50" rx="17.5" ry="17.5" fill="#ffffffff" 
            stroke-width="2" stroke="#000000ff"/>

            </g>
<text dominant-baseline="middle" text-anchor="middle" 
            x="402.5" y="35" class="a15"><tspan x = "402.5" dy="1.0em">5</tspan></text><g >

            <rect x="515" y="47.5" width="130" height="40" fill="#ffffffff" 
            stroke-width="2" stroke="#000000ff" rx="0"  />

            </g>
<text dominant-baseline="middle" text-anchor="middle" 
            x="580" y="45" class="a15"><tspan x = "580" dy="1.0em">b</tspan><tspan x = "580" dy="1.0em">0.000112</tspan></text><g >

            <rect x="160" y="30" width="130" height="40" fill="#ffffffff" 
            stroke-width="2" stroke="#000000ff" rx="0"  />

            </g>
<text dominant-baseline="middle" text-anchor="middle" 
            x="225" y="27.5" class="a15"><tspan x = "225" dy="1.0em">a</tspan><tspan x = "225" dy="1.0em">0.000127</tspan></text><text dominant-baseline="middle" text-anchor="middle" 
            x="467.5" y="17.5" class="a15"><tspan x = "467.5" dy="1.0em">4</tspan></text><text dominant-baseline="middle" text-anchor="middle" 
            x="467.5" y="116" class="a15"><tspan x = "467.5" dy="1.0em">4</tspan></text><text dominant-baseline="middle" text-anchor="middle" 
            x="467.5" y="52.5" class="a15"><tspan x = "467.5" dy="1.0em">4</tspan></text><text dominant-baseline="middle" text-anchor="middle" 
            x="112.5" y="35" class="a15"><tspan x = "112.5" dy="1.0em">2</tspan></text><text dominant-baseline="middle" text-anchor="middle" 
            x="112.5" y="70" class="a15"><tspan x = "112.5" dy="1.0em">3</tspan></text><text dominant-baseline="middle" text-anchor="middle" 
            x="337.5" y="35" class="a15"><tspan x = "337.5" dy="1.0em">4</tspan></text><text dominant-baseline="middle" text-anchor="middle" 
            x="337.5" y="93" class="a15"><tspan x = "337.5" dy="1.0em">3</tspan></text><g >

            <path id="arrow0" d="M 64.40696744668388 95.01712870712929 C 93.39034021242767 102.76077791935091, 83 108, 113 108 S 195.5 108, 225.5 108 S 320 108, 350 108 S 373 108, 403 108 S 438 108, 468 108 S 488.26881509422134 97.67437721615141, 515 84.05660377358491 " stroke="#000000ff" stroke-width="2"   marker-end="url(#endarrow)" 
            fill="transparent" />

            </g>
<text><textPath href="#arrow0" startOffset="50%" text-anchor="middle" class="a15"></textPath></text><g >

            <path id="arrow1" d="M 419.5702175361849 46.14543474989374 C 448.8334475982161 39.537608606854434, 451.08636942701696 33.01291472805471, 480 32.5 S 488.3673640565321 36.83863321449814, 515 50.64814814814815 " stroke="#000000ff" stroke-width="2"   marker-end="url(#endarrow)" 
            fill="transparent" />

            </g>
<text><textPath href="#arrow1" startOffset="50%" text-anchor="middle" class="a15"></textPath></text><g >

            <path id="arrow2" d="M 62.384480915042936 99.70338132914868 C 87.9007339122594 115.48060646483215, 83 131, 113 131 S 195.5 131, 225.5 131 S 308 131, 338 131 S 373 131, 403 131 S 450 131, 480 131 S 504.389406505623 108.05589165767317, 526.240157480315 87.5 " stroke="#000000ff" stroke-width="2"  marker-start="url(#startarrow)"  
            fill="transparent" />

            </g>
<text><textPath href="#arrow2" startOffset="50%" text-anchor="middle" class="a15"></textPath></text><g >

            <path id="arrow3" d="M 419.5702175361849 53.85456525010626 C 448.8334475982161 60.462391393145566, 450 67.5, 480 67.5 S 485 67.5, 515 67.5 " stroke="#000000ff" stroke-width="2"  marker-start="url(#startarrow)"  
            fill="transparent" />

            </g>
<text><textPath href="#arrow3" startOffset="50%" text-anchor="middle" class="a15"></textPath></text><g >

            <path id="arrow4" d="M 63.00987882404204 82.39483751775867 C 89.59824252239983 68.50027326248784, 95 50, 125 50 S 130 50, 160 50 " stroke="#000000ff" stroke-width="2"   marker-end="url(#endarrow)" 
            fill="transparent" />

            </g>
<text><textPath href="#arrow4" startOffset="50%" text-anchor="middle" class="a15"></textPath></text><g >

            <path id="arrow5" d="M 64.95609708725736 89.26118020671076 C 94.88083495112711 87.13748913250065, 95.65821079048541 89.94491755092534, 125 85 S 133.36736405653213 80.66136678550185, 160 66.85185185185185 " stroke="#000000ff" stroke-width="2"  marker-start="url(#startarrow)"  
            fill="transparent" />

            </g>
<text><textPath href="#arrow5" startOffset="50%" text-anchor="middle" class="a15"></textPath></text><g >

            <path id="arrow6" d="M 290 50 C 320 50, 320 50, 350 50 S 355 50, 385 50 " stroke="#000000ff" stroke-width="2"   marker-end="url(#endarrow)" 
            fill="transparent" />

            </g>
<text><textPath href="#arrow6" startOffset="50%" text-anchor="middle" class="a15"></textPath></text></svg>